<?xml version="1.0" encoding="UTF-8" standalone="no"?><!DOCTYPE svg PUBLIC "-//W3C//DTD SVG 1.1//EN" "http://www.w3.org/Graphics/SVG/1.1/DTD/svg11.dtd"><svg width="100%" height="100%" viewBox="0 0 207 84" version="1.1" xmlns="http://www.w3.org/2000/svg" xmlns:xlink="http://www.w3.org/1999/xlink" xml:space="preserve" xmlns:serif="http://www.serif.com/" style="fill-rule:evenodd;clip-rule:evenodd;stroke-linejoin:round;stroke-miterlimit:1.41421;"><path d="M90.065,36.291c0,-0.391 0.056,-0.615 0.615,-0.727l4.807,-0.671c0.448,-0.055 0.727,0 0.727,0.504c0,4.975 3.969,7.545 9.335,7.545c4.695,0 7.602,-2.235 7.602,-5.366c0,-3.968 -4.137,-5.198 -11.459,-7.602c-6.764,-2.291 -10.285,-5.59 -10.285,-11.458c0,-6.373 5.589,-10.062 12.577,-10.062c7.657,0 13.415,4.193 13.415,11.068c0,0.391 -0.112,0.503 -0.503,0.614l-4.919,0.671c-0.391,0.056 -0.615,-0.111 -0.615,-0.615c-0.112,-3.912 -3.298,-6.036 -7.491,-6.036c-3.465,0 -6.092,1.788 -6.092,4.471c0,3.074 2.459,4.64 8.999,6.652c9.503,2.851 12.689,6.764 12.689,12.633c0,6.316 -5.534,10.732 -13.862,10.732c-7.994,0 -15.54,-3.354 -15.54,-12.353" style="fill:#1c1d1d;fill-rule:nonzero;"/><path d="M165.75,27.18l0,1.342c0,11.179 -7.322,20.122 -19.229,20.122c-11.067,0 -19.843,-8.999 -19.843,-20.122c0,-11.069 8.664,-20.068 19.788,-20.068c8.217,0 14.757,4.975 17.216,10.9c0.112,0.335 0.168,0.615 -0.168,0.671l-4.806,0.726c-0.336,0.112 -0.671,0.112 -0.895,-0.223c-1.733,-2.962 -5.534,-6.372 -11.012,-6.372c-8.329,0 -13.751,6.819 -13.751,14.366c0,7.602 5.198,14.42 13.807,14.42c8.831,0 12.521,-6.595 12.521,-11.011c0,-0.335 -0.168,-0.559 -0.503,-0.559l-11.236,0c-0.335,0 -0.558,-0.224 -0.558,-0.559l0,-3.633c0,-0.336 0.223,-0.56 0.558,-0.56l17.553,0c0.334,0 0.558,0.224 0.558,0.56" style="fill:#1c1d1d;fill-rule:nonzero;"/><path d="M189.674,31.707c5.143,0 10.006,-1.901 10.006,-8.664c0,-6.819 -4.919,-8.72 -10.006,-8.72l-7.602,0c-0.335,0 -0.559,0.223 -0.559,0.559l0,16.266c0,0.335 0.224,0.559 0.559,0.559l7.602,0Zm-14.533,16.21l0,-38.737c0,-0.335 0.223,-0.558 0.559,-0.558l14.533,0c9,0 15.819,5.477 15.819,14.421c0,8.943 -6.819,14.366 -15.819,14.366l-8.161,0c-0.335,0 -0.559,0.223 -0.559,0.559l0,9.949c0,0.335 -0.224,0.559 -0.559,0.559l-5.254,0c-0.336,0 -0.559,-0.224 -0.559,-0.559" style="fill:#1c1d1d;fill-rule:nonzero;"/><path d="M95.176,61.171l-2.836,0l0,4.308l2.836,0c1.363,0 2.29,-0.782 2.29,-2.144c0,-1.364 -0.927,-2.164 -2.29,-2.164m0.109,6.089l-2.945,0l0,5.089l-1.962,0l0,-12.941l4.907,0c2.526,0 4.144,1.673 4.144,3.927c0,2.254 -1.618,3.925 -4.144,3.925" style="fill:#1c1d1d;fill-rule:nonzero;"/><path d="M103.627,72.35l0,-12.941l8.269,0l0,1.763l-6.306,0l0,3.78l5.379,0l0,1.745l-5.379,0l0,3.89l6.306,0l0,1.763l-8.269,0Z" style="fill:#1c1d1d;fill-rule:nonzero;"/><path d="M121.273,61.171l-2.908,0l0,4.053l2.908,0c1.309,0 2.199,-0.744 2.199,-2.017c0,-1.272 -0.89,-2.036 -2.199,-2.036m2.272,11.178l-2.726,-5.453l-2.454,0l0,5.453l-1.963,0l0,-12.941l5.016,0c2.454,0 4.017,1.582 4.017,3.78c0,1.855 -1.127,3.036 -2.581,3.436l2.981,5.725l-2.29,0Z" style="fill:#1c1d1d;fill-rule:nonzero;"/><path d="M134.303,72.35l-1.526,0l-4.252,-12.941l2.035,0l2.981,9.415l2.981,-9.415l2.072,0l-4.29,12.941Z" style="fill:#1c1d1d;fill-rule:nonzero;"/><path d="M142.19,72.35l0,-12.941l8.269,0l0,1.763l-6.306,0l0,3.78l5.379,0l0,1.745l-5.379,0l0,3.89l6.306,0l0,1.763l-8.269,0Z" style="fill:#1c1d1d;fill-rule:nonzero;"/><path d="M159.165,58.155l-1.563,0l-2.345,-2.926l1.545,0l1.581,1.763l1.581,-1.763l1.545,0l-2.344,2.926Zm-5.017,14.195l0,-1.691l5.98,-9.487l-5.725,0l0,-1.763l8.033,0l0,1.6l-6.015,9.578l6.015,0l0,1.763l-8.288,0Z" style="fill:#1c1d1d;fill-rule:nonzero;"/><rect x="166.815" y="59.409" width="1.963" height="12.941" style="fill:#1c1d1d;"/><path d="M183.427,72.35l0,-8.652l-2.981,6.308l-1.454,0l-3.053,-6.308l0,8.652l-1.963,0l0,-12.941l1.963,0l3.78,8.052l3.708,-8.052l1.963,0l0,12.941l-1.963,0Z" style="fill:#1c1d1d;fill-rule:nonzero;"/><path d="M194.602,62.335l-2.017,5.744l3.98,0l-1.963,-5.744Zm3.399,10.015l-0.89,-2.599l-5.108,0l-0.891,2.599l-2.089,0l4.743,-12.941l1.582,0l4.743,12.941l-2.09,0Z" style="fill:#1c1d1d;fill-rule:nonzero;"/><rect x="203.743" y="59.409" width="1.963" height="12.941" style="fill:#1c1d1d;"/><path d="M64.117,25.579l0,-17.665l-56.203,0l0,25.341l5.793,0l0,-2.075l-3.719,0l0,-21.192l52.055,0l0,15.591l2.074,0Z" style="fill:#ef4539;fill-rule:nonzero;"/><path d="M0,0l0,41.169l13.708,0l0,-2.074l-11.634,0l0,-37.021l67.883,0l0,23.505l2.075,0l0,-25.579l-72.032,0Z" style="fill:#ef4539;fill-rule:nonzero;"/><path d="M25.341,25.579l30.783,0l0,-2.074l-32.857,0l0,25.34l4.274,0l0,0.04l2.075,0l0,-2.114l-4.275,0l0,-21.192Z" style="fill:#ef4539;fill-rule:nonzero;"/><path d="M17.426,17.665l38.697,0l0,-2.074l-40.771,0l0,41.169l14.263,0l0,-2.075l-12.189,0l0,-37.02Z" style="fill:#ef4539;fill-rule:nonzero;"/><path d="M43.131,56.76l12.993,0l0,-13.946l-2.075,0l0,11.872l-10.918,0l0,2.074Z" style="fill:#ef4539;fill-rule:nonzero;"/><path d="M31.26,83.691l2.074,0l0,-50.436l36.623,0l0,37.02l-27.064,0l0,2.074l29.139,0l0,-41.169l-40.772,0l0,52.511Z" style="fill:#ef4539;fill-rule:nonzero;"/><path d="M46.135,42.814l0,3.957l-3.004,0l0,2.075l5.078,0l0,-6.032l-2.074,0Z" style="fill:#ef4539;fill-rule:nonzero;"/><path d="M62.043,62.361l-19.151,0l0,2.074l21.225,0l0,-25.34l-24.943,0l0,44.596l2.074,0l0,-42.522l20.795,0l0,21.192Z" style="fill:#ef4539;fill-rule:nonzero;"/><path d="M2.074,46.758l-2.074,0l0,25.157l0.766,0.435l28.624,0l0,-2.074l-27.316,0l0,-23.518Z" style="fill:#ef4539;fill-rule:nonzero;"/><path d="M9.988,46.758l-2.074,0l0,17.678l21.476,0l0,-2.074l-19.402,0l0,-15.604Z" style="fill:#ef4539;fill-rule:nonzero;"/><path d="M68.154,25.579l0,-21.622l-64.329,0l0,33.255l9.882,0l0,-2.074l-7.808,0l0,-29.106l60.181,0l0,19.547l2.074,0Z" style="fill:#ef4539;fill-rule:nonzero;"/><path d="M21.622,21.622l34.502,0l0,-2.074l-36.576,0l0,33.255l10.068,0l0,-2.075l-7.994,0l0,-29.106Z" style="fill:#ef4539;fill-rule:nonzero;"/><path d="M5.899,46.758l-2.074,0l0,21.635l25.565,0l0,-2.075l-23.491,0l0,-19.56Z" style="fill:#ef4539;fill-rule:nonzero;"/><path d="M66.08,66.318l-23.187,0l0,2.074l25.261,0l0,-33.254l-32.937,0l0,48.554l2.074,0l0,-46.48l28.789,0l0,29.106Z" style="fill:#ef4539;fill-rule:nonzero;"/><path d="M43.131,52.802l8.996,0l0,-9.989l-2.087,0l0,1.699l0.013,0.376l0,5.84l-6.922,0l0,2.074Z" style="fill:#ef4539;fill-rule:nonzero;"/></svg>